<?xml version="1.0" encoding="utf-8"?>
<!-- Generator: Adobe Illustrator 21.1.0, SVG Export Plug-In . SVG Version: 6.00 Build 0)  -->
<svg version="1.1" id="Capa_1" xmlns="http://www.w3.org/2000/svg" xmlns:xlink="http://www.w3.org/1999/xlink" x="0px" y="0px"
	 viewBox="0 0 468.3 468.3" style="enable-background:new 0 0 468.3 468.3;" xml:space="preserve">
<style type="text/css">
	.st0{fill:#D5D6DB;}
	.st1{fill:#64798A;}
	.st2{fill:#2F4859;}
	.st3{fill:#27A2DB;}
	.st4{fill:#2D93BA;}
	.st5{fill:#E56353;}
	.st6{fill:#F6C358;}
</style>
<path class="st0" d="M450.1,91.6H18.2C8.2,91.6,0,99.7,0,109.8v152.1c0,10.1,8.2,18.2,18.2,18.2H450c10.1,0,18.2-8.2,18.2-18.2
	V109.8C468.3,99.7,460.1,91.6,450.1,91.6z"/>
<g>
	<path class="st1" d="M387.2,228.6H29.4c-1.8,0-3.3,1.7-3.3,3.7v33c0,2,1.5,3.7,3.3,3.7h357.8c1.8,0,3.3-1.7,3.3-3.7v-33
		C390.5,230.3,389.1,228.6,387.2,228.6z"/>
	<path class="st1" d="M347.5,363c-18.4,5.8-41.7-13.7-50.9-42.7c-1.1-3.5-4.9-5.6-8.6-4.4c-3.5,1.1-5.6,4.9-4.4,8.6
		c11.8,37.2,41.6,59.8,67.9,51.5c3.5-1.1,5.6-4.9,4.4-8.6C354.9,363.9,351.1,361.9,347.5,363z"/>
	<path class="st1" d="M414,348.2c-18.4,5.8-41.7-13.7-50.9-42.7c-1.1-3.5-4.9-5.6-8.6-4.4c-3.5,1.1-5.6,4.9-4.4,8.6
		c11.8,37.2,41.6,59.8,67.9,51.5c3.5-1.1,5.6-4.9,4.4-8.6C421.5,349.1,417.7,347.1,414,348.2z"/>
	<path class="st1" d="M176.9,308.3c-3.7-0.7-7.2,1.7-8,5.5c-5.5,29.8-26.3,52.1-45.3,48.5c-3.7-0.7-7.2,1.7-8,5.5
		c-0.7,3.7,1.7,7.2,5.5,8c27.1,5.1,54-21,61.1-59.3C183.1,312.5,180.6,308.9,176.9,308.3z"/>
	<path class="st1" d="M109.1,301.6c-3.7-0.7-7.2,1.7-8,5.5c-5.5,29.8-26.3,52.1-45.3,48.5c-3.7-0.7-7.2,1.7-8,5.5
		c-0.7,3.7,1.7,7.2,5.5,8c27.1,5.1,54-21,61.1-59.3C115.2,305.9,112.7,302.3,109.1,301.6z"/>
</g>
<g>
	<rect x="31.2" y="235" class="st2" width="354.4" height="11.2"/>
	<rect x="31.2" y="252.4" class="st2" width="354.4" height="11.2"/>
</g>
<rect x="410.3" y="201.1" class="st3" width="40.6" height="39.5"/>
<rect x="410.3" y="235.4" class="st4" width="40.6" height="5.2"/>
<rect x="410.3" y="248.8" class="st5" width="17.2" height="10.8"/>
<rect x="433.7" y="248.8" class="st6" width="17.2" height="10.8"/>
</svg>
