<?xml version="1.0" encoding="utf-8"?>
<!-- Generator: Adobe Illustrator 21.1.0, SVG Export Plug-In . SVG Version: 6.00 Build 0)  -->
<svg version="1.1" id="Capa_1" xmlns="http://www.w3.org/2000/svg" xmlns:xlink="http://www.w3.org/1999/xlink" x="0px" y="0px"
	 viewBox="0 0 512 512" style="enable-background:new 0 0 512 512;" xml:space="preserve">
<style type="text/css">
	.st0{fill:#4DB5FF;}
	.st1{fill:#3596D8;}
	.st2{fill:#235087;}
	.st3{fill:#FFD4B0;}
	.st4{fill:#B7E5FF;}
	.st5{fill:#FFDC13;}
	.st6{fill:#FFA511;}
	.st7{fill:#F08015;}
	.st8{fill:#E5AF17;}
	.st9{fill:#EF2648;}
	.st10{fill:#EDC4A2;}
	.st11{fill:#163768;}
	.st12{fill:#235087;stroke:#235087;stroke-width:14;stroke-miterlimit:10;}
</style>
<path class="st0" d="M512,335.4V512H229.5V335.4c0-29.3,23.7-53,53-53H459C488.3,282.5,512,306.2,512,335.4z"/>
<path class="st1" d="M393.4,444.8l3.8,23.1l-26.5,35.3l-26.2-34.9c-31.2,11.4-64.2,17.3-97.4,17.2c-5.9,0-11.8-0.2-17.7-0.6V512H512
	V335.4c0-7.6-1.6-15-4.8-21.9C483.9,368.1,444.1,414,393.4,444.8z"/>
<polygon class="st2" points="361.9,361.9 379.6,361.9 397.2,467.9 370.8,503.2 344.3,467.9 "/>
<g>
	<path class="st3" d="M273.7,141.2H256c-9.8,0-17.7,7.9-17.7,17.7l0,0c0,9.8,7.9,17.7,17.7,17.7h17.7V141.2z"/>
	<path class="st3" d="M467.9,141.2h17.7c9.8,0,17.7,7.9,17.7,17.7l0,0c0,9.8-7.9,17.7-17.7,17.7h-17.7V141.2z"/>
</g>
<g>
	<polygon class="st4" points="370.8,317.8 406.1,282.5 459,282.5 406.1,353.1 	"/>
	<polygon class="st4" points="370.8,317.8 335.4,282.5 282.5,282.5 335.4,353.1 	"/>
</g>
<polygon class="st2" points="344.3,344.3 370.8,317.8 397.2,344.3 379.6,361.9 361.9,361.9 "/>
<path class="st5" d="M167.7,353.1h-17.7v-17.7c0-4.9-4-8.8-8.8-8.8h-35.3c-4.9,0-8.8,4-8.8,8.8v17.7H79.4v-17.7
	c0-14.6,11.9-26.5,26.5-26.5h35.3c14.6,0,26.5,11.9,26.5,26.5V353.1z"/>
<rect y="353.1" class="st6" width="247.2" height="158.9"/>
<rect y="423.7" class="st5" width="247.2" height="17.7"/>
<g>
	<path class="st7" d="M8.8,503.2c-3,0-5.9-0.1-8.8-0.2v9h247.2v-70.6h-56C138.9,481.5,74.8,503.3,8.8,503.2z"/>
	<path class="st7" d="M212.2,423.7h35v-38.4C236.6,399.1,224.9,412,212.2,423.7z"/>
</g>
<path class="st8" d="M191.2,441.4h56v-17.7h-35C205.5,429.9,198.4,435.8,191.2,441.4z"/>
<rect x="105.9" y="432.6" class="st5" width="35.3" height="35.3"/>
<path class="st3" d="M406.1,282.5v-24.4c37.2-14.5,61.8-50.4,61.8-90.4V70.6H273.7v97.1c0,40,24.6,75.8,61.8,90.4v24.4l35.3,35.3
	L406.1,282.5z"/>
<g>
	<path class="st2" d="M344.3,0c-39,0-70.6,31.6-70.6,70.6v35.3h79.4c19.5,0,35.3-15.8,35.3-35.3h79.4V0H344.3z"/>
</g>
<path class="st9" d="M370.8,238.3c-19.5,0-35.3-15.8-35.3-35.3v-8.8h17.7v8.8c0,9.8,7.9,17.7,17.7,17.7s17.7-7.9,17.7-17.7v-8.8
	h17.7v8.8C406.1,222.5,390.3,238.3,370.8,238.3z"/>
<path class="st10" d="M370.8,264.8c-12.1,0-24.1-2.3-35.3-6.7v15.4c17.8,13.5,40.1,19.7,62.3,17.3l8.3-8.3v-24.4
	C394.8,262.5,382.8,264.8,370.8,264.8z"/>
<path class="st11" d="M370.8,503.2l26.5-35.3l-3.8-23.1c-15.5,9.4-31.8,17.3-48.8,23.5L370.8,503.2z"/>
<line class="st12" x1="300.5" y1="153" x2="350.1" y2="153.7"/>
<line class="st12" x1="390.1" y1="154.2" x2="439.7" y2="154.9"/>
</svg>
