<?xml version="1.0" encoding="utf-8"?>
<!-- Generator: Adobe Illustrator 21.1.0, SVG Export Plug-In . SVG Version: 6.00 Build 0)  -->
<svg version="1.1" id="Capa_1" xmlns="http://www.w3.org/2000/svg" xmlns:xlink="http://www.w3.org/1999/xlink" x="0px" y="0px"
	 viewBox="0 0 512 512" style="enable-background:new 0 0 512 512;" xml:space="preserve">
<style type="text/css">
	.st0{fill:#FB4239;}
	.st1{fill:#2195F2;}
	.st2{fill:#4DAAF5;}
	.st3{fill:#EFC7B0;}
	.st4{fill:#B7E5FF;}
	.st5{fill:#FFFFFF;}
	.st6{fill:#3F51B4;}
</style>
<g>
	<path class="st0" d="M362.2,308.5L362.2,308.5c24.4-24.4,24.4-64,0-88.5l0,0l-8.8-8.8H158.7l-8.8,8.8c-24.4,24.4-24.4,64,0,88.5
		l0,0H362.2z"/>
	<path class="st0" d="M256,105c22.7,22.7,53.4,35.4,85.4,35.4h11.9V105H256z"/>
</g>
<path class="st1" d="M158.7,46.7V105h194.6V46.7c0-7.4-4.7-14.1-11.7-16.6L262,1.1c-3.9-1.4-8.2-1.4-12.1,0l-79.6,29
	C163.3,32.6,158.7,39.2,158.7,46.7z"/>
<path class="st2" d="M87.9,512V379.3c0-39.1,31.7-70.8,70.8-70.8h194.6c39.1,0,70.8,31.7,70.8,70.8V512L87.9,512L87.9,512z"/>
<g>
	<path class="st3" d="M158.7,175.8H141c-9.8,0-17.7,7.9-17.7,17.7l0,0c0,9.8,7.9,17.7,17.7,17.7h17.7V175.8z"/>
	<path class="st3" d="M353.3,175.8H371c9.8,0,17.7,7.9,17.7,17.7l0,0c0,9.8-7.9,17.7-17.7,17.7h-17.7V175.8z"/>
	<path class="st3" d="M341.4,140.4c-32,0-62.8-12.7-85.4-35.4h-97.3v97.3c0,40.1,24.6,76,61.9,90.6v15.6c0,27.1,3.7,36.1,10.4,42.7
		c13.8,13.8,36.2,13.8,50,0c6.6-6.6,10.4-15.6,10.4-25v-33.3c37.3-14.6,61.9-50.5,61.9-90.6v-61.9
		C353.3,140.4,341.4,140.4,341.4,140.4z"/>
</g>
<g>
	<rect x="247.2" y="361.6" class="st4" width="17.7" height="150.4"/>
	<rect x="211.8" y="432.4" class="st4" width="17.7" height="17.7"/>
	<rect x="211.8" y="397" class="st4" width="17.7" height="17.7"/>
</g>
<polygon class="st5" points="282.5,43.1 264.9,43.1 264.9,25.4 247.2,25.4 247.2,43.1 229.5,43.1 229.5,60.8 247.2,60.8 247.2,78.5 
	264.9,78.5 264.9,60.8 282.5,60.8 "/>
<rect x="211.8" y="467.8" class="st4" width="17.7" height="17.7"/>
<g>
	<path class="st0" d="M238.3,202.4h-17.7v-8.8c0-4.9-4-8.8-8.8-8.8s-8.8,4-8.8,8.8v8.8h-17.7v-8.8c0-14.7,11.9-26.5,26.5-26.5
		s26.5,11.9,26.5,26.5V202.4z"/>
	<path class="st0" d="M326.8,202.4h-17.7v-8.8c0-4.9-4-8.8-8.8-8.8s-8.8,4-8.8,8.8v8.8h-17.7v-8.8c0-14.7,11.9-26.5,26.5-26.5
		s26.5,11.9,26.5,26.5V202.4z"/>
	<path class="st0" d="M226.5,228.9H286v8.8c0,14.7-13.3,26.5-29.8,26.5l0,0c-16.4,0-29.8-11.9-29.8-26.5L226.5,228.9L226.5,228.9z"
		/>
</g>
<g>
	<path class="st6" d="M167.5,336.7v-28.2h-17.7v28.2c-13.8,4.9-21.1,20-16.2,33.9c4.9,13.8,20,21.1,33.9,16.2
		c13.8-4.9,21.1-20,16.2-33.9C181,345.3,175.1,339.4,167.5,336.7z M158.7,370.5c-4.9,0-8.8-4-8.8-8.8s4-8.8,8.8-8.8s8.8,4,8.8,8.8
		S163.6,370.5,158.7,370.5z"/>
	<path class="st6" d="M362.2,336v-27.4h-17.7V336c-20.6,4.2-35.4,22.3-35.4,43.4v35.4c0,14.7,11.9,26.5,26.5,26.5h8.8v-17.7h-8.8
		c-4.9,0-8.8-4-8.8-8.8v-35.4c0-14.7,11.9-26.5,26.5-26.5c14.7,0,26.5,11.9,26.5,26.5v35.4c0,4.9-4,8.8-8.8,8.8h-8.8v17.7h8.8
		c14.7,0,26.5-11.9,26.5-26.5v-35.4C397.5,358.3,382.7,340.2,362.2,336z"/>
</g>
<path class="st0" d="M224.6,228.9H289v8.8c0,14.7-14.4,26.5-32.2,26.5l0,0c-17.8,0-32.2-11.9-32.2-26.5L224.6,228.9L224.6,228.9z"/>
</svg>
