<?xml version="1.0" encoding="iso-8859-1"?>
<!-- Generator: Adobe Illustrator 19.0.0, SVG Export Plug-In . SVG Version: 6.00 Build 0)  -->
<svg version="1.1" id="Capa_1" xmlns="http://www.w3.org/2000/svg" xmlns:xlink="http://www.w3.org/1999/xlink" x="0px" y="0px"
	 viewBox="0 0 512.007 512.007" style="enable-background:new 0 0 512.007 512.007;" xml:space="preserve">
<g>
	<path style="fill:#FB4239;" d="M362.167,308.527L362.167,308.527c24.426-24.426,24.426-64.034,0-88.47l0,0l-8.847-8.847H158.687
		l-8.847,8.847c-24.426,24.426-24.426,64.034,0,88.47l0,0H362.167z"/>
	<path style="fill:#FB4239;" d="M256.003,105.047c22.657,22.657,53.391,35.388,85.435,35.388h11.881v-35.388H256.003z"/>
</g>
<path style="fill:#2195F2;" d="M158.687,46.657v58.39H353.32v-58.39c0-7.44-4.654-14.093-11.651-16.632L262.046,1.068
	c-3.91-1.424-8.183-1.424-12.094,0l-79.623,28.956C163.331,32.572,158.678,39.216,158.687,46.657z"/>
<path style="fill:#4DAAF5;" d="M87.911,512.007V379.302c0-39.086,31.69-70.776,70.776-70.776H353.32
	c39.086,0,70.776,31.69,70.776,70.776v132.704H87.911z"/>
<g>
	<path style="fill:#EFC7B0;" d="M158.687,175.822h-17.694c-9.776,0-17.694,7.918-17.694,17.694l0,0
		c0,9.776,7.918,17.694,17.694,17.694h17.694V175.822z"/>
	<path style="fill:#EFC7B0;" d="M353.32,175.822h17.694c9.776,0,17.694,7.918,17.694,17.694l0,0c0,9.776-7.918,17.694-17.694,17.694
		H353.32V175.822z"/>
	<path style="fill:#EFC7B0;" d="M341.438,140.434c-32.044,0-62.778-12.731-85.435-35.388h-97.317v97.317
		c0.027,40.068,24.612,76.013,61.929,90.584v15.579c0,27.081,3.725,36.078,10.369,42.713c13.819,13.819,36.228,13.81,50.047-0.009
		c6.635-6.635,10.36-15.633,10.36-25.01v-33.273c37.316-14.571,61.902-50.516,61.929-90.584v-61.929
		C353.32,140.434,341.438,140.434,341.438,140.434z"/>
</g>
<g>
	<rect x="247.156" y="361.608" style="fill:#B7E5FF;" width="17.694" height="150.398"/>
	<rect x="211.769" y="432.384" style="fill:#B7E5FF;" width="17.694" height="17.694"/>
	<rect x="211.769" y="396.996" style="fill:#B7E5FF;" width="17.694" height="17.694"/>
</g>
<polygon style="fill:#FFFFFF;" points="282.544,43.118 264.85,43.118 264.85,25.424 247.156,25.424 247.156,43.118 229.462,43.118 
	229.462,60.812 247.156,60.812 247.156,78.506 264.85,78.506 264.85,60.812 282.544,60.812 "/>
<rect x="211.769" y="467.772" style="fill:#B7E5FF;" width="17.694" height="17.694"/>
<g>
	<path style="fill:#FB4239;" d="M238.309,202.363h-17.694v-8.847c0-4.884-3.963-8.847-8.847-8.847s-8.847,3.963-8.847,8.847v8.847
		h-17.694v-8.847c0-14.659,11.881-26.541,26.541-26.541s26.541,11.881,26.541,26.541V202.363z"/>
	<path style="fill:#FB4239;" d="M326.779,202.363h-17.694v-8.847c0-4.884-3.963-8.847-8.847-8.847c-4.884,0-8.847,3.963-8.847,8.847
		v8.847h-17.694v-8.847c0-14.659,11.881-26.541,26.541-26.541s26.541,11.881,26.541,26.541V202.363z"/>
	<path style="fill:#FB4239;" d="M229.462,228.904h53.082v8.847c0,14.659-11.881,26.541-26.541,26.541l0,0
		c-14.659,0-26.541-11.881-26.541-26.541V228.904z"/>
</g>
<g>
	<path style="fill:#3F51B4;" d="M167.534,336.695v-28.169H149.84v28.169c-13.819,4.884-21.065,20.047-16.172,33.866
		c4.884,13.819,20.047,21.065,33.866,16.172c13.819-4.884,21.065-20.047,16.172-33.866
		C181.034,345.321,175.089,339.367,167.534,336.695z M158.687,370.455c-4.884,0-8.847-3.963-8.847-8.847s3.963-8.847,8.847-8.847
		c4.884,0,8.847,3.963,8.847,8.847S163.57,370.455,158.687,370.455z"/>
	<path style="fill:#3F51B4;" d="M362.167,335.952v-27.426h-17.694v27.426c-20.587,4.229-35.361,22.339-35.388,43.35v35.388
		c0,14.659,11.881,26.541,26.541,26.541h8.847v-17.694h-8.847c-4.883,0-8.847-3.963-8.847-8.847v-35.388
		c0-14.659,11.881-26.541,26.541-26.541c14.659,0,26.541,11.881,26.541,26.541v35.388c0,4.884-3.963,8.847-8.847,8.847h-8.847
		v17.694h8.847c14.659,0,26.541-11.881,26.541-26.541v-35.388C397.528,358.291,382.745,340.181,362.167,335.952z"/>
</g>
<g>
</g>
<g>
</g>
<g>
</g>
<g>
</g>
<g>
</g>
<g>
</g>
<g>
</g>
<g>
</g>
<g>
</g>
<g>
</g>
<g>
</g>
<g>
</g>
<g>
</g>
<g>
</g>
<g>
</g>
</svg>
