<?xml version="1.0" encoding="iso-8859-1"?>
<!-- Generator: Adobe Illustrator 19.0.0, SVG Export Plug-In . SVG Version: 6.00 Build 0)  -->
<svg version="1.1" id="Layer_1" xmlns="http://www.w3.org/2000/svg" xmlns:xlink="http://www.w3.org/1999/xlink" x="0px" y="0px"
	 viewBox="0 0 512 512" style="enable-background:new 0 0 512 512;" xml:space="preserve">
<path style="fill:#D36F3D;" d="M177.753,454.334H6.239c-3.446,0-6.239-2.794-6.239-6.239V322.803h177.753V454.334z"/>
<path style="fill:#EA8249;" d="M177.753,446.928H6.239c-3.446,0-6.239-2.794-6.239-6.239V315.397h177.753V446.928z"/>
<rect x="7.867" y="382.999" style="fill:#E0C8A2;" width="175.145" height="55.314"/>
<path style="fill:#FCE8CA;" d="M141.755,290.705c-12.805,0-23.178,10.385-23.178,23.178c0-9.192-5.356-17.144-13.133-20.886
	c-3.041-1.473-6.444-2.292-10.045-2.292H7.867v117.071h80.176c6.467,0,12.466,2.011,17.401,5.45
	c7.94,5.508,13.133,14.688,13.133,25.084c0-16.863,13.671-30.534,30.534-30.534h80.176v-11.449V290.705H141.755z"/>
<g>
	<rect x="152.365" y="315.395" style="fill:#999999;" width="58.67" height="12.864"/>
	<rect x="152.365" y="372.673" style="fill:#999999;" width="58.67" height="12.864"/>
	<rect x="152.365" y="344.034" style="fill:#999999;" width="58.67" height="12.864"/>
	<rect x="30.744" y="315.395" style="fill:#999999;" width="58.67" height="12.864"/>
	<rect x="30.744" y="372.673" style="fill:#999999;" width="58.67" height="12.864"/>
	<rect x="30.744" y="344.034" style="fill:#999999;" width="58.67" height="12.864"/>
</g>
<g>
	<path style="fill:#EDD9BE;" d="M118.576,313.883V438.31c0-10.396-5.192-19.576-13.133-25.084V292.997
		C113.22,296.739,118.576,304.691,118.576,313.883z"/>
	<path style="fill:#EDD9BE;" d="M118.576,313.883V438.31c0-10.396,5.192-19.576,13.133-25.084V292.997
		C123.932,296.739,118.576,304.691,118.576,313.883z"/>
</g>
<circle style="fill:#C0E7F9;" cx="103.179" cy="83.263" r="53.957"/>
<path style="fill:#F95428;" d="M103.183,145.984c-34.586,0-62.725-28.139-62.725-62.725s28.139-62.725,62.725-62.725
	s62.725,28.139,62.725,62.725S137.769,145.984,103.183,145.984z M103.183,38.078C78.27,38.078,58,58.347,58,83.261
	s20.27,45.183,45.183,45.183s45.183-20.27,45.183-45.183S128.097,38.078,103.183,38.078z"/>
<path style="fill:#4D4D4D;" d="M117.037,90.276h-13.854c-3.874,0-7.017-3.142-7.017-7.017V59.831c0-3.874,3.142-7.017,7.017-7.017
	c3.874,0,7.017,3.142,7.017,7.017v16.413h6.838c3.874,0,7.017,3.142,7.017,7.017C124.054,87.135,120.913,90.276,117.037,90.276z"/>
<path style="fill:#71C5F4;" d="M423.238,385.303v106.161H168.303V385.303c0-35.632,25.762-65.254,59.688-71.218
	c4.105-0.737,8.326-1.111,12.642-1.111h110.277c4.701,0,9.297,0.444,13.741,1.31C398.025,320.704,423.238,350.056,423.238,385.303z"
	/>
<polygon style="fill:#EA8249;" points="318.528,380.636 317.756,381.712 295.77,411.93 273.785,381.712 273.013,380.636 
	295.77,364.474 "/>
<path style="fill:#64B4D8;" d="M364.65,314.284l-16.828,93.203l-29.294-20.804l-22.757-16.161l-22.757,16.161l-29.294,20.804
	l-15.729-93.402c4.105-0.737,8.326-1.111,12.642-1.111h110.277C355.61,312.974,360.206,313.418,364.65,314.284z"/>
<path style="fill:#E0B394;" d="M347.374,208.772v107.527c0,28.498-23.106,51.603-51.603,51.603
	c-28.506,0-51.603-23.106-51.603-51.603v-121.56"/>
<path style="fill:#64B4D8;" d="M285.188,312.979h-44.562c-39.943,0-72.324,32.38-72.324,72.324v106.162h44.562V385.303
	C212.865,345.359,245.245,312.979,285.188,312.979z"/>
<polygon style="fill:#EA8249;" points="316.504,491.464 275.048,491.464 295.77,384.484 "/>
<path style="fill:#F7CBA4;" d="M256.301,332.058l-48.004-34.877c-25.367-18.43-39.09-48.908-36.075-80.119l8.326-86.161
	c5.735-59.343,55.603-104.624,115.221-104.624l0,0c59.619,0,109.487,45.281,115.221,104.624l8.326,86.161
	c3.016,31.211-10.707,61.687-36.074,80.119l-48.004,34.877C311.705,349.156,279.836,349.156,256.301,332.058z"/>
<g>
	<path style="fill:#E0B394;" d="M202.096,234.042c-0.807,13.647,3.637,27.072,12.431,37.539l50.172,61.652
		c2.62,3.122,5.59,5.742,8.806,7.835c-6.034-2.105-11.835-5.122-17.202-9.016l-48.005-34.872
		c-25.365-18.43-39.082-48.905-36.065-80.117l8.315-86.163c5.683-58.764,54.636-103.74,113.493-104.594
		c-36.252,0.877-77.303,35.048-79.443,71.44L202.096,234.042z"/>
	<path style="fill:#E0B394;" d="M172.495,214.127c-14.501-0.643-26.043-12.606-26.043-27.259c0-15.062,12.209-27.283,27.283-27.283
		c1.357,0,2.69,0.094,3.999,0.292"/>
	<path style="fill:#E0B394;" d="M419.034,214.127c14.501-0.643,26.055-12.606,26.055-27.259c0-15.062-12.221-27.283-27.294-27.283
		c-1.357,0-2.701,0.105-3.999,0.292"/>
</g>
<path style="fill:#666666;" d="M396.984,85.824h-0.012c-3.251,0.538-6.584,0.819-9.987,0.819c-17.822,0-33.855-7.59-45.093-19.693
	c-11.273,12.77-27.751,20.839-46.122,20.839S260.91,79.72,249.637,66.95c-11.227,12.104-27.271,19.693-45.081,19.693
	c-3.403,0-6.736-0.281-9.987-0.819c19.857-35.726,57.957-59.547,101.202-59.547c29.809,0,57.185,11.32,77.825,30.054
	C382.893,64.775,390.822,74.726,396.984,85.824z"/>
<g>
	<path style="fill:#E2AF66;" d="M490.264,435.768c-3.23,0-5.847-2.618-5.847-5.847v-23.096c0-10.801-8.787-19.588-19.588-19.588
		c-10.801,0-19.588,8.787-19.588,19.588c0,3.229-2.617,5.847-5.847,5.847s-5.847-2.618-5.847-5.847
		c0-10.801-8.787-19.588-19.588-19.588c-10.801,0-19.588,8.787-19.588,19.588v23.096c0,3.229-2.617,5.847-5.847,5.847
		s-5.847-2.618-5.847-5.847v-23.096c0-17.249,14.033-31.282,31.282-31.282c10.469,0,19.754,5.17,25.435,13.091
		c5.681-7.921,14.966-13.091,25.435-13.091c17.249,0,31.282,14.033,31.282,31.282v23.096
		C496.111,433.15,493.494,435.768,490.264,435.768z"/>
	<path style="fill:#E2AF66;" d="M439.394,475.529c-3.23,0-5.847-2.618-5.847-5.847v-97.063c0-3.229,2.617-5.847,5.847-5.847
		s5.847,2.618,5.847,5.847v97.063C445.241,472.911,442.624,475.529,439.394,475.529z"/>
	<path style="fill:#E2AF66;" d="M465.121,475.529h-51.455c-3.23,0-5.847-2.618-5.847-5.847c0-3.229,2.617-5.847,5.847-5.847h51.455
		c3.23,0,5.847,2.618,5.847,5.847C470.968,472.911,468.351,475.529,465.121,475.529z"/>
	<path style="fill:#E2AF66;" d="M467.562,429.726c0,12.271,9.948,22.219,22.219,22.219c12.271,0,22.219-9.948,22.219-22.219"/>
	<path style="fill:#E2AF66;" d="M366.406,429.726c0,12.271,9.948,22.219,22.219,22.219c12.271,0,22.219-9.948,22.219-22.219"/>
</g>
<path style="fill:#F2F2F2;" d="M341.55,254.726c0,0-0.667,1.637-2.07,4.222c-0.339,0.667-0.737,1.368-1.181,2.128
	c-0.526,0.748-1.134,1.509-1.789,2.362c-0.655,0.854-1.403,1.719-2.199,2.678c-0.281,0.363-0.585,0.667-0.912,0.982
	c-0.117,0.117-0.246,0.234-0.374,0.351c-0.456,0.421-0.924,0.865-1.403,1.31c-0.959,0.9-2,1.789-3.087,2.725
	c-1.146,0.842-2.374,1.637-3.637,2.503c-0.632,0.433-1.286,0.854-1.953,1.275c-0.667,0.398-1.38,0.725-2.105,1.088
	c-1.427,0.725-2.912,1.427-4.444,2.128c-3.157,1.076-6.444,2.339-9.952,2.865c-3.461,0.807-7.075,0.936-10.677,1.111
	c-3.602-0.175-7.215-0.292-10.677-1.099c-3.508-0.526-6.794-1.789-9.952-2.865c-1.532-0.69-3.017-1.392-4.456-2.117
	c-0.713-0.363-1.427-0.69-2.105-1.088c-0.655-0.433-1.31-0.842-1.941-1.275c-1.263-0.865-2.503-1.672-3.649-2.503
	c-1.088-0.936-2.117-1.836-3.087-2.725c-0.479-0.456-0.936-0.889-1.392-1.321c-0.164-0.152-0.327-0.304-0.491-0.456
	c-0.281-0.281-0.55-0.55-0.784-0.865c-0.76-0.924-1.497-1.778-2.14-2.62c-0.631-0.854-1.251-1.602-1.766-2.351
	c-0.468-0.795-0.9-1.52-1.263-2.187c-1.462-2.666-2.07-4.257-2.07-4.257s1.731,0.526,4.397,1.602
	c0.678,0.257,1.38,0.573,2.163,0.889c0.83,0.246,1.684,0.561,2.596,0.865c0.924,0.304,1.848,0.678,2.83,1.029
	c0.971,0.374,2.07,0.62,3.157,0.947c1.088,0.316,2.175,0.702,3.309,1.041c1.181,0.257,2.362,0.561,3.578,0.854
	c0.608,0.14,1.204,0.316,1.813,0.479c0.62,0.14,1.263,0.222,1.894,0.351c1.275,0.222,2.549,0.479,3.824,0.772
	c2.655,0.246,5.274,0.83,8.011,0.936c2.701,0.351,5.461,0.257,8.198,0.421c2.748-0.164,5.508-0.058,8.209-0.409
	c2.736-0.094,5.356-0.69,8.011-0.936c1.275-0.281,2.549-0.538,3.824-0.76c0.632-0.129,1.275-0.21,1.894-0.351
	c0.608-0.175,1.216-0.339,1.813-0.479c1.216-0.292,2.397-0.608,3.578-0.854c1.146-0.339,2.234-0.725,3.321-1.041
	c1.076-0.327,2.199-0.585,3.134-0.947c0.959-0.327,1.859-0.69,2.772-0.971c0.9-0.304,1.742-0.608,2.573-0.854
	c0.819-0.351,1.544-0.69,2.234-0.959C339.854,255.218,341.55,254.726,341.55,254.726z"/>
<g>
	<path style="fill:#4D4D4D;" d="M333.399,267.098c-0.117,0.117-0.246,0.234-0.374,0.351c-0.456,0.421-0.924,0.865-1.403,1.31
		c-0.959,0.9-2,1.789-3.087,2.725c-1.146,0.842-2.374,1.637-3.637,2.503c-0.632,0.433-1.286,0.854-1.953,1.275
		c-0.667,0.398-1.38,0.725-2.105,1.088c-1.427,0.725-2.912,1.427-4.444,2.128c-3.157,1.076-6.444,2.339-9.952,2.865
		c-3.461,0.807-7.075,0.936-10.677,1.111c-3.602-0.175-7.215-0.292-10.677-1.099c-3.508-0.526-6.794-1.789-9.952-2.865
		c-1.532-0.69-3.017-1.392-4.456-2.117c-0.713-0.363-1.427-0.69-2.105-1.088c-0.655-0.433-1.31-0.842-1.941-1.275
		c-1.263-0.865-2.503-1.672-3.649-2.503c-1.088-0.936-2.117-1.836-3.087-2.725c-0.479-0.456-0.936-0.889-1.392-1.321
		c-0.164-0.152-0.327-0.304-0.491-0.456c0.374,0.129,0.748,0.257,1.134,0.386c0.924,0.304,1.848,0.667,2.83,1.017
		c0.971,0.386,2.07,0.631,3.157,0.959c1.088,0.316,2.175,0.69,3.309,1.041c1.181,0.246,2.362,0.561,3.578,0.854
		c0.608,0.14,1.204,0.304,1.813,0.468c0.62,0.14,1.263,0.222,1.894,0.351c1.275,0.222,2.549,0.491,3.824,0.772
		c2.655,0.257,5.274,0.842,8.011,0.936c2.701,0.363,5.461,0.257,8.198,0.433c2.748-0.164,5.508-0.058,8.209-0.421
		c2.736-0.094,5.356-0.678,8.011-0.924c1.275-0.281,2.549-0.55,3.824-0.772c0.632-0.129,1.275-0.21,1.894-0.351
		c0.608-0.164,1.216-0.327,1.813-0.468c1.216-0.292,2.397-0.608,3.578-0.854c1.146-0.351,2.234-0.737,3.321-1.041
		c1.076-0.327,2.199-0.596,3.134-0.947c0.959-0.339,1.859-0.69,2.772-0.982C332.686,267.344,333.048,267.217,333.399,267.098z"/>
	<path style="fill:#4D4D4D;" d="M243.711,215.552c-4.844,0-8.771-3.927-8.771-8.771v-14.028c0-4.844,3.927-8.771,8.771-8.771
		s8.771,3.927,8.771,8.771v14.028C252.482,211.625,248.555,215.552,243.711,215.552z"/>
</g>
<g>
	<path style="fill:#666666;" d="M327.778,158.841c0,0,0.023-0.233,0.102-0.633c0.09-0.387,0.181-0.999,0.378-1.691
		c0.088-0.358,0.201-0.731,0.331-1.141c0.17-0.416,0.398-0.835,0.64-1.31c0.24-0.477,0.543-0.948,0.861-1.478
		c0.32-0.538,0.703-0.946,1.095-1.465c0.398-0.499,0.845-0.982,1.313-1.502c0.495-0.469,1.031-0.931,1.602-1.395
		c1.117-0.983,2.482-1.695,3.904-2.485c1.471-0.622,3.032-1.297,4.705-1.609c1.656-0.43,3.393-0.532,5.124-0.613
		c1.732,0.08,3.47,0.172,5.127,0.6c1.673,0.309,3.236,0.987,4.708,1.604c1.423,0.789,2.789,1.499,3.907,2.484
		c0.57,0.465,1.107,0.929,1.603,1.395c0.468,0.52,0.913,1.008,1.313,1.504c0.386,0.517,0.787,0.941,1.081,1.458
		c0.295,0.515,0.58,0.975,0.812,1.442c0.23,0.468,0.454,0.879,0.622,1.295c0.153,0.433,0.289,0.824,0.389,1.195
		c0.222,0.717,0.315,1.333,0.4,1.719c0.075,0.399,0.091,0.626,0.091,0.626s-0.242-0.006-0.651-0.046
		c-0.398-0.051-1.015-0.077-1.697-0.177c-0.353-0.036-0.713-0.102-1.11-0.154c-0.422-0.02-0.839-0.078-1.291-0.113
		c-0.888-0.094-1.814-0.233-2.832-0.272c-0.501-0.033-0.986-0.105-1.493-0.147c-0.525-0.007-1.043-0.034-1.558-0.072
		c-1.008-0.131-2.104-0.054-3.121-0.181c-1.07,0.039-2.094-0.092-3.155-0.06c-1.043-0.078-2.098,0.005-3.145-0.069
		c-1.047,0.071-2.101-0.02-3.147,0.056c-1.062-0.037-2.086,0.098-3.159,0.055c-1.019,0.126-2.117,0.048-3.125,0.18
		c-0.515,0.039-1.033,0.067-1.559,0.073c-0.508,0.042-0.99,0.119-1.493,0.15c-1.038,0.056-1.901,0.154-2.768,0.229
		c-0.455,0.035-0.881,0.068-1.275,0.097c-0.42,0.076-0.803,0.16-1.168,0.208c-0.708,0.125-1.326,0.154-1.719,0.205
		C328.012,158.84,327.778,158.841,327.778,158.841z"/>
	<path style="fill:#666666;" d="M223.659,158.841c0,0,0.023-0.233,0.102-0.633c0.09-0.387,0.181-0.999,0.378-1.691
		c0.088-0.358,0.201-0.731,0.331-1.141c0.17-0.416,0.398-0.835,0.64-1.31c0.24-0.477,0.543-0.948,0.861-1.478
		c0.32-0.538,0.703-0.946,1.095-1.465c0.398-0.499,0.846-0.982,1.313-1.502c0.495-0.469,1.031-0.931,1.602-1.395
		c1.117-0.983,2.482-1.695,3.904-2.485c1.471-0.622,3.032-1.297,4.705-1.609c1.656-0.43,3.393-0.532,5.124-0.613
		c1.732,0.08,3.47,0.172,5.127,0.6c1.673,0.309,3.236,0.987,4.708,1.604c1.423,0.789,2.789,1.499,3.907,2.484
		c0.569,0.465,1.107,0.929,1.603,1.395c0.468,0.52,0.913,1.008,1.313,1.504c0.386,0.517,0.787,0.941,1.081,1.458
		c0.295,0.515,0.58,0.975,0.812,1.442c0.23,0.468,0.454,0.879,0.622,1.295c0.153,0.433,0.289,0.824,0.389,1.195
		c0.222,0.717,0.315,1.333,0.4,1.719c0.075,0.399,0.091,0.626,0.091,0.626s-0.242-0.006-0.651-0.046
		c-0.398-0.051-1.015-0.077-1.697-0.177c-0.353-0.036-0.713-0.102-1.11-0.154c-0.422-0.02-0.838-0.078-1.291-0.113
		c-0.888-0.094-1.814-0.233-2.832-0.272c-0.501-0.033-0.986-0.105-1.493-0.147c-0.525-0.007-1.043-0.034-1.558-0.072
		c-1.008-0.131-2.104-0.054-3.121-0.181c-1.07,0.039-2.094-0.092-3.155-0.06c-1.043-0.078-2.098,0.005-3.145-0.069
		c-1.047,0.071-2.101-0.02-3.147,0.056c-1.062-0.037-2.086,0.098-3.159,0.055c-1.019,0.126-2.117,0.048-3.125,0.18
		c-0.515,0.039-1.033,0.067-1.559,0.073c-0.508,0.042-0.991,0.119-1.493,0.15c-1.038,0.056-1.902,0.154-2.768,0.229
		c-0.455,0.035-0.881,0.068-1.275,0.097c-0.42,0.076-0.803,0.16-1.168,0.208c-0.708,0.125-1.326,0.154-1.719,0.205
		C223.893,158.84,223.659,158.841,223.659,158.841z"/>
</g>
<path style="fill:#4D4D4D;" d="M347.83,215.552c-4.844,0-8.771-3.927-8.771-8.771v-14.028c0-4.844,3.927-8.771,8.771-8.771
	c4.844,0,8.771,3.927,8.771,8.771v14.028C356.601,211.625,352.674,215.552,347.83,215.552z"/>
<path style="fill:#E0B394;" d="M309.219,179.891v41.515c0,7.427-6.021,13.448-13.448,13.448l0,0
	c-7.427,0-13.448-6.021-13.448-13.448v-41.515"/>
<g>
</g>
<g>
</g>
<g>
</g>
<g>
</g>
<g>
</g>
<g>
</g>
<g>
</g>
<g>
</g>
<g>
</g>
<g>
</g>
<g>
</g>
<g>
</g>
<g>
</g>
<g>
</g>
<g>
</g>
</svg>
