<?xml version="1.0" encoding="iso-8859-1"?>
<!-- Generator: Adobe Illustrator 19.0.0, SVG Export Plug-In . SVG Version: 6.00 Build 0)  -->
<svg version="1.1" id="Layer_1" xmlns="http://www.w3.org/2000/svg" xmlns:xlink="http://www.w3.org/1999/xlink" x="0px" y="0px"
	 viewBox="0 0 512 512" style="enable-background:new 0 0 512 512;" xml:space="preserve">
<path style="fill:#F7D04A;" d="M416.69,78.66c-43.858-42.556-101.676-65.992-162.801-65.992S134.945,36.104,91.087,78.66
	c-43.76,42.461-68.936,99.351-70.892,160.195c-0.069,2.143,0.734,4.223,2.225,5.763c1.492,1.54,3.544,2.409,5.688,2.409h451.561
	c2.144,0,4.196-0.869,5.688-2.409c1.492-1.54,2.295-3.62,2.225-5.763C485.626,178.011,460.45,121.12,416.69,78.66z"/>
<g>
	<path style="fill:#F3B41B;" d="M84.986,238.855c1.957-60.844,27.133-117.734,70.892-160.195
		c36.018-34.949,81.456-56.989,130.406-63.757c-10.653-1.473-21.47-2.235-32.395-2.235c-61.125,0-118.943,23.436-162.801,65.992
		c-43.76,42.461-68.936,99.351-70.892,160.195c-0.069,2.143,0.734,4.223,2.225,5.763c1.492,1.54,3.544,2.409,5.688,2.409h64.791
		c-2.144,0-4.196-0.869-5.688-2.409S84.916,240.998,84.986,238.855z"/>
	<path style="fill:#F3B41B;" d="M465.378,245.145c-1.048-3.28-4.097-5.507-7.542-5.507H54.163c-3.445,0-6.492,2.226-7.542,5.507
		c-1.049,3.28,0.144,6.862,2.948,8.86c60.514,43.088,131.896,65.863,206.43,65.863s145.916-22.775,206.43-65.864
		C465.235,252.006,466.428,248.425,465.378,245.145z"/>
	<path style="fill:#F3B41B;" d="M298.755,0h-85.509c-4.373,0-7.918,3.545-7.918,7.918V248.61c0,4.373,3.545,7.918,7.918,7.918
		h85.509c4.373,0,7.918-3.545,7.918-7.918V7.918C306.672,3.545,303.127,0,298.755,0z"/>
</g>
<g>
	<path style="fill:#F7D04A;" d="M284.503,0h-57.006c-4.373,0-7.918,3.545-7.918,7.918V248.61c0,4.373,3.545,7.918,7.918,7.918
		h57.006c4.373,0,7.918-3.545,7.918-7.918V7.918C292.421,3.545,288.876,0,284.503,0z"/>
	<path style="fill:#F7D04A;" d="M500.915,196.355H11.085c-4.374,0-7.918,3.544-7.918,7.918v44.338c0,4.374,3.544,7.918,7.918,7.918
		h489.831c4.374,0,7.918-3.544,7.918-7.918v-44.338C508.833,199.899,505.289,196.355,500.915,196.355z"/>
</g>
<rect x="335.175" y="196.355" style="fill:#FEE7BE;" width="90.788" height="60.173"/>
<path style="fill:#C74B38;" d="M451.299,339.926H60.701c-13.097,0-23.753,10.656-23.753,23.753v124.569
	c0,13.097,10.656,23.753,23.753,23.753h83.398c56.755,0,102.928-46.173,102.928-102.928v-19.53h17.946v19.53
	c0,56.755,46.173,102.928,102.928,102.928h83.398c13.097,0,23.753-10.656,23.753-23.753V363.678
	C475.052,350.582,464.396,339.926,451.299,339.926z"/>
<path style="fill:#EB6836;" d="M367.901,496.165c-48.022,0-87.093-39.07-87.093-87.093v-35.365h-49.617v35.365
	c0,48.022-39.07,87.093-87.093,87.093H60.701c-4.366,0-7.918-3.551-7.918-7.918V363.678c0-4.366,3.551-7.918,7.918-7.918h390.598
	c4.366,0,7.918,3.551,7.918,7.918v124.569c0,4.366-3.551,7.918-7.918,7.918H367.901z"/>
<path style="fill:#FFFFFF;" d="M207.439,371.596H76.536c-4.374,0-7.918,3.544-7.918,7.918v92.899c0,4.374,3.544,7.918,7.918,7.918
	h67.563c39.292,0,71.258-31.966,71.258-71.258v-29.559C215.357,375.14,211.813,371.596,207.439,371.596z"/>
<g>
	<path style="fill:#D4F2E8;" d="M76.536,371.596c-4.374,0-7.918,3.544-7.918,7.918v36.421l44.338-44.338H76.536z"/>
	<path style="fill:#D4F2E8;" d="M213.037,373.915L106.623,480.33h37.476c39.292,0,71.258-31.966,71.258-71.258v-29.559
		C215.357,377.327,214.471,375.348,213.037,373.915z"/>
	<path style="fill:#D4F2E8;" d="M148.849,371.596l-80.231,80.231v20.586c0,1.647,0.504,3.175,1.364,4.442l105.259-105.259H148.849z"
		/>
</g>
<path style="fill:#FFFFFF;" d="M435.464,371.596H304.561c-4.374,0-7.918,3.544-7.918,7.918v29.559
	c0,39.292,31.966,71.258,71.258,71.258h67.563c4.374,0,7.918-3.544,7.918-7.918v-92.899
	C443.381,375.14,439.838,371.596,435.464,371.596z"/>
<g>
	<path style="fill:#D4F2E8;" d="M304.561,371.596c-4.374,0-7.918,3.544-7.918,7.918v29.559c0,17.769,6.553,34.026,17.349,46.519
		l83.995-83.995H304.561z"/>
	<path style="fill:#D4F2E8;" d="M435.464,480.33c4.374,0,7.918-3.544,7.918-7.918v-39.588l-47.505,47.505H435.464z"/>
	<path style="fill:#D4F2E8;" d="M435.464,371.596h-0.528l-100.41,100.41c9.963,5.305,21.321,8.324,33.375,8.324h0.528l74.953-74.953
		v-25.864C443.381,375.14,439.838,371.596,435.464,371.596z"/>
</g>
<g>
</g>
<g>
</g>
<g>
</g>
<g>
</g>
<g>
</g>
<g>
</g>
<g>
</g>
<g>
</g>
<g>
</g>
<g>
</g>
<g>
</g>
<g>
</g>
<g>
</g>
<g>
</g>
<g>
</g>
</svg>
