<?xml version="1.0" encoding="iso-8859-1"?>
<!-- Generator: Adobe Illustrator 19.0.0, SVG Export Plug-In . SVG Version: 6.00 Build 0)  -->
<svg version="1.1" id="Capa_1" xmlns="http://www.w3.org/2000/svg" xmlns:xlink="http://www.w3.org/1999/xlink" x="0px" y="0px"
	 viewBox="0 0 511.996 511.996" style="enable-background:new 0 0 511.996 511.996;" xml:space="preserve">
<path style="fill:#FFE17D;" d="M429.417,437.677h-297.29c-4.561,0-8.258-3.697-8.258-8.258v-297.29c0-4.561,3.697-8.258,8.258-8.258
	h297.29c4.561,0,8.258,3.697,8.258,8.258v297.29C437.675,433.98,433.978,437.677,429.417,437.677z"/>
<path style="fill:#FFD164;" d="M330.321,412.903c-100.338,0-181.677-81.34-181.677-181.677V123.871h-16.516
	c-4.561,0-8.258,3.697-8.258,8.258v297.29c0,4.561,3.697,8.258,8.258,8.258h297.29c4.561,0,8.258-3.697,8.258-8.258v-16.516H330.321
	z"/>
<path style="fill:#C0BCC1;" d="M482.385,467.29l-15.101-15.097c-9.359-9.363-21.802-14.516-35.032-14.516H140.385v33.032h291.866
	c4.343,0,8.601,1.766,11.677,4.839l15.101,15.097c3.226,3.226,7.452,4.839,11.677,4.839s8.456-1.613,11.681-4.839
	C488.836,484.194,488.836,473.734,482.385,467.29z"/>
<path style="fill:#AEA8AF;" d="M443.924,475.544l15.105,15.101c3.226,3.226,7.452,4.839,11.677,4.839s8.453-1.612,11.679-4.837
	l-29.197-29.197c-4.646-4.646-10.947-7.256-17.518-7.256H140.385v16.516h291.866C436.63,470.71,440.828,472.449,443.924,475.544z"/>
<path style="fill:#C0BCC1;" d="M99.095,404.645H82.579V79.746c0-6.613-2.581-12.835-7.258-17.52l11.677-11.678
	c7.798,7.806,12.097,18.173,12.097,29.198V404.645z"/>
<circle style="fill:#6F6571;" cx="90.838" cy="454.19" r="57.806"/>
<circle style="fill:#C9C6CA;" cx="90.838" cy="454.19" r="37.16"/>
<path style="fill:#FF8087;" d="M247.739,123.871v90.839c0,4.561,3.697,8.258,8.258,8.258h49.548c4.561,0,8.258-3.697,8.258-8.258
	V123.87C313.803,123.87,247.739,123.87,247.739,123.871z"/>
<path style="fill:#FFF6D8;" d="M247.74,379.871h-66.065c-4.565,0-8.258-3.698-8.258-8.258s3.694-8.258,8.258-8.258h66.065
	c4.565,0,8.258,3.698,8.258,8.258S252.304,379.871,247.74,379.871z"/>
<path style="fill:#FFFFFF;" d="M280.772,346.839h-99.097c-4.565,0-8.258-3.698-8.258-8.258s3.694-8.258,8.258-8.258h99.097
	c4.565,0,8.258,3.698,8.258,8.258S285.337,346.839,280.772,346.839z"/>
<circle style="fill:#AEA8AF;" cx="90.838" cy="454.19" r="16.516"/>
<path style="fill:#867E88;" d="M66.063,64.648L29.61,28.194c-6.45-6.45-6.45-16.907,0-23.357l0,0c6.45-6.45,16.907-6.45,23.357,0
	L89.42,41.29c6.45,6.45,6.45,16.907,0,23.357l0,0C82.97,71.098,72.513,71.098,66.063,64.648z"/>
<path style="fill:#9C969E;" d="M52.967,4.837c-0.422-0.422-0.902-0.741-1.356-1.108c-0.454,0.367-0.934,0.686-1.356,1.108h-0.001
	c-6.45,6.45-6.45,16.908,0,23.357l36.454,36.454c0.422,0.422,0.902,0.741,1.356,1.108c0.454-0.367,0.934-0.686,1.356-1.108h0.001
	c6.45-6.45,6.45-16.907,0-23.357L52.967,4.837z"/>
<g>
</g>
<g>
</g>
<g>
</g>
<g>
</g>
<g>
</g>
<g>
</g>
<g>
</g>
<g>
</g>
<g>
</g>
<g>
</g>
<g>
</g>
<g>
</g>
<g>
</g>
<g>
</g>
<g>
</g>
</svg>
